<?xml version="1.0" encoding="utf-8"?>
<!-- Generator: Adobe Illustrator 28.0.0, SVG Export Plug-In . SVG Version: 6.00 Build 0)  -->
<svg version="1.1" xmlns="http://www.w3.org/2000/svg" xmlns:xlink="http://www.w3.org/1999/xlink" x="0px" y="0px"
	 viewBox="0 0 300 70" style="enable-background:new 0 0 300 70;" xml:space="preserve">
<style type="text/css">
	.st0{display:none;}
	.st1{display:inline;fill:#1F7F9C;}
	.st2{fill:none;}
	.st3{fill:#012538;}
	.st4{fill:#B74E1E;stroke:#B74E1E;stroke-width:0.4;stroke-miterlimit:10;}
	.st5{fill:#1F7F9B;}
	.st6{fill:#846528;}
	.st7{fill:url(#SVGID_1_);}
	.st8{fill:url(#SVGID_00000144318664568206557460000006291000199203789999_);}
</style>
<g id="Layer_2" class="st0">
	<path class="st1" d="M67.1-191.9c10.5,7.6,15.7,19,15.7,34.3c0,12.2-3.3,22.5-10,31c-6.7,8.5-16,14.8-27.8,19.2
		c-11.9,4.3-25.5,6.5-41,6.5c-13.1,0-23.8-1.7-32.2-5.2c-8.4-3.5-14.4-7.9-18.2-13.1c-3.7-5.3-5.6-10.7-5.6-16.1
		c0-5.6,1.5-10.5,4.6-14.7c3-4.2,6.8-7.1,11.2-8.9l0.7,1.6c-4,1.8-7.5,4.6-10.4,8.4c-2.9,3.8-4.3,8.4-4.3,13.7
		c0,6.1,2,11.5,6.1,16.4c4.1,4.8,9.7,8.6,16.8,11.2c7.1,2.7,15.1,4,24.1,4c15,0,26.6-3.9,34.7-11.6c8.2-7.7,12.3-18.5,12.3-32.3
		c0-8-1.6-15.4-4.8-22.1c-3.2-6.7-8-12-14.5-16c-6.5-4-14.3-6-23.5-6c-8.2,0-16.1,1.8-23.7,5.3c-7.6,3.6-15.9,9-24.6,16.3h-0.4
		l11.4-62.8c1.9-10.5,4.9-17.7,8.8-21.6c3.9-3.9,9.5-5.8,16.8-5.8c3.9,0,7.9,0.4,12.1,1.3s9.8,2.3,16.6,4.2c7.9,2.1,14.6,3.7,20,4.8
		c5.5,1.1,11,1.7,16.5,1.7c14,0,21.6-4.5,22.9-13.4H79c-1.3,14.6-5,26.3-10.9,35.2c-5.9,8.9-16,13.4-30.3,13.4
		c-10.1,0-19.8-1.3-29.2-3.8c-9.4-2.5-20.8-6.2-34.3-11.1c-3-1.2-6-2.3-9.1-3.3L-45.3-174c9.2-8.5,20.2-15.4,32.9-20.9
		c12.7-5.5,25.9-8.2,39.5-8.2C43.3-203.2,56.6-199.4,67.1-191.9z"/>
</g>
<g id="Layer_2_copy">
</g>
<g id="Layer_1">
	<rect class="st2" width="300" height="70"/>
	<g>
		<g>
			<path class="st3" d="M10.3,60.1l-0.7,2.4H7.4l2.9-9.4h2.8l2.9,9.4h-2.3L13,60.1H10.3z M12.7,58.5l-0.6-2
				c-0.2-0.6-0.3-1.3-0.5-1.8h0c-0.1,0.6-0.3,1.3-0.4,1.8l-0.6,2H12.7z"/>
			<path class="st3" d="M20.1,53h2.1v7.6H26v1.8h-5.9V53z"/>
			<path class="st3" d="M32.9,58.5h-3.5v2.2h3.9v1.8h-6V53h5.8v1.8h-3.7v2h3.5V58.5z"/>
			<path class="st3" d="M42.6,62c-0.7,0.2-1.9,0.5-3.2,0.5c-1.7,0-3-0.4-3.8-1.3c-0.9-0.8-1.3-2.1-1.3-3.4c0-3.1,2.3-4.9,5.4-4.9
				c1.2,0,2.2,0.2,2.6,0.4l-0.4,1.7c-0.5-0.2-1.1-0.4-2.2-0.4c-1.8,0-3.1,1-3.1,3.1c0,2,1.2,3.1,3,3.1c0.5,0,0.9-0.1,1-0.1v-2h-1.5
				v-1.7h3.5V62z"/>
			<path class="st3" d="M46.5,60.1l-0.7,2.4h-2.2l2.9-9.4h2.8l2.9,9.4h-2.3l-0.7-2.4H46.5z M48.9,58.5l-0.6-2
				c-0.2-0.6-0.3-1.3-0.5-1.8h0c-0.1,0.6-0.3,1.3-0.4,1.8l-0.6,2H48.9z"/>
			<path class="st3" d="M60.4,62.2c-0.4,0.2-1.3,0.4-2.4,0.4c-3.3,0-4.9-2-4.9-4.7c0-3.2,2.3-5,5.2-5c1.1,0,1.9,0.2,2.3,0.4L60.1,55
				c-0.4-0.2-1-0.3-1.8-0.3c-1.7,0-3,1-3,3.1c0,1.9,1.1,3.1,3,3.1c0.7,0,1.4-0.1,1.8-0.3L60.4,62.2z"/>
			<path class="st3" d="M64,62.5v-3.9L61,53h2.5l1,2.3c0.3,0.7,0.5,1.2,0.7,1.8h0c0.2-0.6,0.4-1.1,0.7-1.8l1-2.3h2.4l-3.1,5.5v3.9
				H64z"/>
		</g>
		<g>
			<path class="st4" d="M91.4,61.6c-0.5,0.8-0.9,1.4-1.4,1.8s-1,0.6-1.7,0.6c-0.6,0-1.3-0.1-2-0.4s-1.4-0.7-2.1-1.3
				c-0.7,0.6-1.5,1.1-2.3,1.4c-0.9,0.3-1.8,0.5-2.7,0.5s-1.8-0.2-2.6-0.5c-0.8-0.3-1.4-0.8-1.8-1.4s-0.7-1.3-0.7-2
				c0-1,0.4-1.8,1.2-2.6c0.8-0.7,2.1-1.4,3.8-2c-0.4-1.1-0.6-2-0.6-2.9c0-0.7,0.2-1.4,0.5-1.9c0.3-0.5,0.7-0.9,1.3-1.2
				c0.5-0.3,1.1-0.4,1.7-0.4c0.8,0,1.4,0.2,1.8,0.6c0.4,0.4,0.6,1,0.6,1.6c0,0.8-0.3,1.5-0.8,2.1c-0.6,0.6-1.4,1.2-2.5,1.6
				c0.5,1,1.1,2,1.9,2.9c0.8,1,1.6,1.8,2.4,2.5c0.4-0.6,0.7-1.2,1-2s0.3-1.5,0.3-2.3c0-0.4,0-0.8-0.1-1.3l0.2,0
				c0.1,0.5,0.1,0.9,0.1,1.3c0,1.6-0.5,3.1-1.4,4.4c1.4,1.1,2.7,1.7,3.9,1.7c0.4,0,0.7-0.1,1.1-0.2c0.4-0.1,0.6-0.4,0.8-0.7
				L91.4,61.6z M82.5,63.1c0.6-0.2,1.2-0.6,1.7-1c-1-0.8-2-1.8-2.9-2.9c-0.9-1.1-1.6-2.3-2-3.5c-1,0.4-1.8,0.9-2.3,1.4
				c-0.6,0.6-0.8,1.3-0.8,2.2c0,0.8,0.2,1.6,0.6,2.2c0.4,0.6,1,1.1,1.7,1.4c0.7,0.3,1.4,0.5,2.2,0.5C81.2,63.4,81.9,63.3,82.5,63.1z
				 M80.7,50c-0.4,0.4-0.6,1-0.6,1.7c0,0.9,0.3,2,0.9,3.2c2.2-0.9,3.2-2.1,3.2-3.5c0-0.6-0.2-1.1-0.6-1.5c-0.4-0.4-0.9-0.6-1.5-0.6
				C81.6,49.4,81.1,49.6,80.7,50z"/>
		</g>
		<g>
			<path class="st3" d="M99.3,60.1l-0.7,2.4h-2.2l2.9-9.4h2.8l2.9,9.4h-2.3l-0.7-2.4H99.3z M101.7,58.5l-0.6-2
				c-0.2-0.6-0.3-1.3-0.5-1.8h0c-0.1,0.6-0.3,1.3-0.4,1.8l-0.6,2H101.7z"/>
			<path class="st3" d="M109.2,53.2c0.7-0.1,1.6-0.2,2.9-0.2c1.3,0,2.3,0.3,2.9,0.8c0.6,0.5,1,1.3,1,2.2c0,0.9-0.3,1.7-0.9,2.2
				c-0.7,0.7-1.8,1-3.1,1c-0.3,0-0.5,0-0.7-0.1v3.4h-2.1V53.2z M111.3,57.4c0.2,0,0.4,0.1,0.7,0.1c1.1,0,1.8-0.6,1.8-1.5
				c0-0.9-0.6-1.4-1.7-1.4c-0.4,0-0.7,0-0.9,0.1V57.4z"/>
			<path class="st3" d="M117.3,53.2C118,53,119,53,120.1,53c1.4,0,2.4,0.2,3.1,0.7c0.6,0.4,0.9,1.1,0.9,2c0,1.2-0.9,2-1.7,2.3v0
				c0.7,0.3,1,0.9,1.3,1.8c0.3,1.1,0.6,2.3,0.8,2.7h-2.2c-0.1-0.3-0.4-1-0.6-2.2c-0.3-1.2-0.7-1.5-1.6-1.5h-0.6v3.7h-2.1V53.2z
				 M119.4,57.2h0.8c1.1,0,1.7-0.5,1.7-1.4c0-0.9-0.6-1.3-1.6-1.3c-0.5,0-0.8,0-1,0.1V57.2z"/>
			<path class="st3" d="M134.3,57.7c0,3.1-1.9,5-4.6,5c-2.8,0-4.4-2.1-4.4-4.8c0-2.8,1.8-4.9,4.6-4.9
				C132.7,52.9,134.3,55,134.3,57.7z M127.4,57.8c0,1.9,0.9,3.2,2.3,3.2c1.4,0,2.3-1.4,2.3-3.2c0-1.7-0.8-3.2-2.3-3.2
				C128.3,54.6,127.4,55.9,127.4,57.8z"/>
			<path class="st3" d="M143.7,58.9c0-1.1-0.1-2.5-0.1-3.9h0c-0.3,1.2-0.7,2.5-1.1,3.7l-1.1,3.7h-1.7l-1-3.6
				c-0.3-1.1-0.6-2.5-0.9-3.7h0c0,1.3-0.1,2.7-0.2,3.9l-0.2,3.6h-2l0.6-9.4h2.8l0.9,3.2c0.3,1.1,0.6,2.3,0.8,3.4h0.1
				c0.3-1.1,0.6-2.3,0.9-3.4l1-3.1h2.8l0.5,9.4h-2.1L143.7,58.9z"/>
			<path class="st3" d="M149.7,53v9.4h-2.1V53H149.7z"/>
			<path class="st3" d="M151.6,60.3c0.6,0.3,1.5,0.6,2.4,0.6c1,0,1.5-0.4,1.5-1c0-0.6-0.4-0.9-1.6-1.3c-1.6-0.6-2.6-1.4-2.6-2.8
				c0-1.6,1.4-2.8,3.6-2.8c1.1,0,1.8,0.2,2.4,0.5l-0.5,1.7c-0.4-0.2-1.1-0.4-2-0.4c-0.9,0-1.4,0.4-1.4,0.9c0,0.6,0.5,0.9,1.8,1.3
				c1.7,0.6,2.4,1.5,2.4,2.8c0,1.6-1.2,2.9-3.8,2.9c-1.1,0-2.1-0.3-2.7-0.6L151.6,60.3z"/>
			<path class="st3" d="M164.7,58.5h-3.5v2.2h3.9v1.8h-6V53h5.8v1.8h-3.7v2h3.5V58.5z"/>
		</g>
	</g>
	<g>
		<path class="st5" d="M141.1,46.6h2.4l3.3-3.3c3.4,2.5,7,3.6,11.6,3.6c9.1,0,14.6-5.1,14.6-12.8c0-3.8-1.3-7-3.5-9.2
			c-2.6-2.5-5.9-3.3-10-4.3c-7.7-1.8-12.2-2.1-12.2-6.7c0-3.7,2.7-6,7.5-6c6,0,10,3.9,13.8,12h2.6l-0.7-14.6H168l-2.8,2.7
			c-3.2-2-6.6-3-10.4-3c-8.6,0-14.3,5.4-14.3,12.4c0,7.1,4.6,10.5,13.9,12.8c4.8,1.2,8.3,1.8,10.1,3c1.3,0.9,2.1,2.4,2.1,4.2
			c0,4-2.9,6.5-7.8,6.5c-6.7,0-12-4.6-15.3-13.4h-2.8L141.1,46.6z M96,10.5l12.9,35.4h2.8l12.1-35.7v29.9c0,2.2-0.4,2.9-2.8,2.9
			h-2.5v2.9h20.8V43h-2.8c-2.4,0-2.8-0.7-2.8-2.9V11.9c0-2.2,0.4-2.9,2.8-2.9h2.8V6.1h-17.7l-8.3,23.8l-8.7-23.8h-18v2.9h2.8
			c2.4,0,2.8,0.9,2.8,3v24c0,4.9-0.9,6.8-5.9,7.1v2.9h16.1V43c-5.2-0.1-6.4-1.9-6.4-7.1V10.5z M64.5,46.9l12.9-31.4
			c1.7-4.3,4.3-6.5,7.4-6.6V6.1H68.5V9c3.9,0.1,5.5,1,5.5,3.4c0,0.8-0.2,1.7-0.6,2.8l-7.9,19.7l-9.2-22.9c-0.3-0.7-0.4-1.2-0.4-1.6
			c0-0.9,0.9-1.4,2.6-1.4h2V6.1H40.7v2.9c2.5,0,3.7,0.6,4.4,2.3l14.8,35.7H64.5z M1.6,45.9h37.9l0.7-15l-2.8-0.2
			c-2.2,9.2-6.5,12.4-15.9,12.4c-3.4,0-4.3-0.3-4.3-3V26.8H18c5,0,7,2.1,8,7.6h2.8V16.2H26c-1,5.5-3,7.7-8,7.7h-0.8v-12
			c0-2.8,0.8-3,4.1-3c8.7,0,12.6,3,14.6,11.5h2.8L38.3,6.1H1.6v2.9h2.8c2.5,0,2.9,0.7,2.9,2.9v28.3c0,2.2-0.4,2.9-2.9,2.9H1.6V45.9z
			"/>
	</g>
	<g>
		<g>
			<path class="st6" d="M263.3,25.9L263.3,25.9l-1.1,0.6l-0.2-1.1l1.5-0.8h1.1v7.1h-1.3V25.9z"/>
			<path class="st6" d="M266.5,30.6c0.2,0,0.4,0,0.6-0.1c0.2-0.1,0.5-0.2,0.7-0.4c0.3-0.3,0.5-0.8,0.6-1.4h0
				c-0.2,0.3-0.5,0.4-0.9,0.4c-0.8,0-1.5-0.8-1.5-2.1c0-1.2,0.7-2.5,1.9-2.5c1.2,0,1.8,1.2,1.8,2.9c0,1.6-0.5,2.7-1,3.4
				c-0.4,0.5-1,0.8-1.6,0.9c-0.2,0-0.4,0-0.6,0V30.6z M267.2,26.9c0,0.7,0.2,1.3,0.6,1.3c0.2,0,0.4-0.2,0.5-0.4
				c0-0.1,0.1-0.3,0.1-0.8c0-0.9-0.2-1.5-0.6-1.5C267.5,25.6,267.2,26,267.2,26.9z"/>
			<path class="st6" d="M273.8,24.6v0.9l-2,6.2h-1.3l2-5.8v0h-2.2v-1.3H273.8z"/>
			<path class="st6" d="M274.6,30.3c0.3,0.2,0.6,0.3,1,0.3c0.6,0,1-0.4,1-1c0-0.8-0.5-1.1-1.2-1.1h-0.2v-1h0.1
				c0.5,0,1.1-0.2,1.1-0.9c0-0.5-0.3-0.8-0.7-0.8c-0.3,0-0.6,0.1-0.8,0.3l-0.2-1.1c0.3-0.2,0.8-0.4,1.3-0.4c1.1,0,1.7,0.8,1.7,1.7
				c0,0.7-0.4,1.3-0.9,1.6v0c0.6,0.2,1.1,0.8,1.1,1.8c0,1.1-0.7,2.1-2.1,2.1c-0.5,0-1-0.1-1.3-0.3L274.6,30.3z"/>
			<path class="st6" d="M261.7,42.7v-1l0.6-0.9c0.8-1.2,1.5-2.1,1.5-3.2c0-0.6-0.3-1-0.8-1c-0.4,0-0.7,0.2-1,0.4l-0.2-1.1
				c0.3-0.2,0.8-0.4,1.4-0.4c1.4,0,1.8,1,1.8,2.1c0,1.3-0.7,2.4-1.5,3.3l-0.4,0.5v0h2v1.3H261.7z"/>
			<path class="st6" d="M269.7,39.1c0,2.5-0.8,3.7-1.9,3.7c-1.4,0-1.9-1.8-1.9-3.6c0-2,0.6-3.7,1.9-3.7
				C269.4,35.5,269.7,37.4,269.7,39.1z M267.3,39.1c0,1.7,0.2,2.4,0.6,2.4c0.4,0,0.5-0.8,0.5-2.4c0-1.5-0.1-2.4-0.5-2.4
				C267.5,36.7,267.3,37.5,267.3,39.1z"/>
			<path class="st6" d="M270.2,42.7v-1l0.6-0.9c0.8-1.2,1.5-2.1,1.5-3.2c0-0.6-0.3-1-0.8-1c-0.4,0-0.7,0.2-1,0.4l-0.2-1.1
				c0.3-0.2,0.8-0.4,1.4-0.4c1.4,0,1.8,1,1.8,2.1c0,1.3-0.7,2.4-1.5,3.3l-0.4,0.5v0h2v1.3H270.2z"/>
			<path class="st6" d="M274.6,41.3c0.3,0.2,0.6,0.3,1,0.3c0.6,0,1-0.4,1-1c0-0.8-0.5-1.1-1.2-1.1h-0.2v-1h0.1
				c0.5,0,1.1-0.2,1.1-0.9c0-0.5-0.3-0.8-0.7-0.8c-0.3,0-0.6,0.1-0.8,0.3l-0.2-1.1c0.3-0.2,0.8-0.4,1.3-0.4c1.1,0,1.7,0.8,1.7,1.7
				c0,0.7-0.4,1.3-0.9,1.6v0c0.6,0.2,1.1,0.8,1.1,1.8c0,1.1-0.7,2.1-2.1,2.1c-0.5,0-1-0.1-1.3-0.3L274.6,41.3z"/>
		</g>
		<g>
			<g>
				<linearGradient id="SVGID_1_" gradientUnits="userSpaceOnUse" x1="286.0117" y1="58.7789" x2="254.6529" y2="8.5942">
					<stop  offset="5.618000e-03" style="stop-color:#FBC926"/>
					<stop  offset="0.2528" style="stop-color:#FFFBCC"/>
					<stop  offset="0.3045" style="stop-color:#F8F0BB"/>
					<stop  offset="0.4072" style="stop-color:#E7D28E"/>
					<stop  offset="0.55" style="stop-color:#CCA246"/>
					<stop  offset="0.5955" style="stop-color:#C3922E"/>
					<stop  offset="0.8708" style="stop-color:#EED688"/>
					<stop  offset="1" style="stop-color:#FFFBCC"/>
				</linearGradient>
				<path class="st7" d="M270.3,63.1c-5.8,0-10.8-1.3-14.9-3.8c-4.1-2.5-7.2-6.1-9.3-10.5c-2.1-4.4-3.2-9.5-3.2-15.1
					s1.1-10.7,3.2-15.1c2.1-4.4,5.2-7.9,9.3-10.5c4.1-2.5,9.1-3.8,14.9-3.8c5.8,0,10.8,1.3,14.9,3.8c4.1,2.5,7.2,6.1,9.3,10.5
					c2.1,4.4,3.2,9.5,3.2,15.1s-1.1,10.7-3.2,15.1c-2.1,4.4-5.2,7.9-9.3,10.5C281.2,61.8,276.2,63.1,270.3,63.1z M270.3,5.3
					c-3.9,0-6.8,2.3-8.6,6.8c-1.8,4.6-2.7,11.8-2.7,21.6c0,9.7,0.9,17,2.7,21.6c1.8,4.5,4.7,6.8,8.6,6.8c3.8,0,6.7-2.3,8.5-6.8
					c1.8-4.6,2.7-11.8,2.7-21.6s-0.9-17.1-2.7-21.6C277,7.6,274.2,5.3,270.3,5.3z"/>
				<path class="st6" d="M270.3,4.5c5.8,0,10.8,1.3,14.9,3.8c4.1,2.5,7.2,6,9.3,10.4c2.1,4.4,3.1,9.4,3.1,15c0,5.6-1,10.6-3.1,15
					c-2.1,4.4-5.2,7.9-9.3,10.4c-4.1,2.5-9,3.8-14.9,3.8c-5.8,0-10.8-1.3-14.9-3.8c-4.1-2.5-7.2-6-9.3-10.4c-2.1-4.4-3.1-9.4-3.1-15
					c0-5.6,1-10.6,3.1-15c2.1-4.4,5.2-7.9,9.3-10.4C259.6,5.7,264.5,4.5,270.3,4.5 M270.3,62.3c3.9,0,6.8-2.3,8.6-6.9
					c1.8-4.6,2.7-11.8,2.7-21.7c0-9.8-0.9-17.1-2.7-21.7c-1.8-4.6-4.7-6.9-8.6-6.9c-4,0-6.9,2.3-8.7,6.9c-1.8,4.6-2.7,11.8-2.7,21.6
					c0,9.8,0.9,17,2.7,21.6C263.5,59.9,266.4,62.3,270.3,62.3 M270.3,4.2c-5.9,0-10.9,1.3-15,3.8c-4.1,2.6-7.3,6.1-9.4,10.5
					c-2.1,4.4-3.2,9.5-3.2,15.2c0,5.6,1.1,10.7,3.2,15.2c2.1,4.4,5.3,8,9.4,10.5c4.1,2.5,9.2,3.8,15,3.8c5.9,0,10.9-1.3,15-3.8
					c4.1-2.6,7.3-6.1,9.4-10.5c2.1-4.4,3.2-9.5,3.2-15.2c0-5.6-1.1-10.7-3.2-15.2c-2.1-4.4-5.3-8-9.4-10.5
					C281.2,5.5,276.2,4.2,270.3,4.2L270.3,4.2z M270.3,62c-3.9,0-6.6-2.2-8.4-6.7c-1.8-4.6-2.7-11.8-2.7-21.5c0-9.7,0.9-17,2.7-21.5
					c1.8-4.5,4.5-6.7,8.4-6.7c3.8,0,6.5,2.2,8.3,6.7c1.8,4.5,2.7,11.8,2.7,21.6c0,9.8-0.9,17-2.7,21.6C276.9,59.8,274.1,62,270.3,62
					L270.3,62z"/>
			</g>
			<g>
				
					<linearGradient id="SVGID_00000156570882143553421870000012685843099947456648_" gradientUnits="userSpaceOnUse" x1="231.1037" y1="57.5802" x2="198.8306" y2="5.9324">
					<stop  offset="5.618000e-03" style="stop-color:#FBC926"/>
					<stop  offset="0.2528" style="stop-color:#FFFBCC"/>
					<stop  offset="0.3045" style="stop-color:#F8F0BB"/>
					<stop  offset="0.4072" style="stop-color:#E7D28E"/>
					<stop  offset="0.55" style="stop-color:#CCA246"/>
					<stop  offset="0.5955" style="stop-color:#C3922E"/>
					<stop  offset="0.8708" style="stop-color:#EED688"/>
					<stop  offset="1" style="stop-color:#FFFBCC"/>
				</linearGradient>
				<path style="fill:url(#SVGID_00000156570882143553421870000012685843099947456648_);" d="M209.4,63.1c-4.8,0-8.8-0.6-11.9-1.9
					c-3.1-1.3-5.3-2.9-6.7-4.9c-1.4-1.9-2.1-4-2.1-6c0-2.1,0.6-3.9,1.7-5.5c1.1-1.5,2.5-2.7,4.2-3.3l0.2-0.1l0.4,2.2l-0.1,0.1
					c-0.6,0.5-1.2,1.1-1.7,1.7c-1,1.4-1.6,3-1.6,4.9c0,2.2,0.7,4.2,2.2,5.9c1.7,2,4,3,5.6,3.5c2.1,0.6,4.7,0.9,7.8,0.9
					c5.1,0,8.7-1.3,11.8-4.2c2.7-2.6,4.4-5.3,4.4-10.6c0-2.9-0.6-5.6-1.7-8c-1.2-2.4-2.9-4.4-5.2-5.8c-2.3-1.4-5.2-2.2-8.5-2.2
					c-3,0-5.9,0.7-8.6,1.9c-2.8,1.3-5.8,3.3-9,5.9l0,0h-0.4l4.2-23.2c0.7-3.9,1.8-6.6,3.3-8c1.5-1.4,3.6-2.2,6.3-2.2
					c1.4,0,2.9,0.2,4.5,0.5c1.5,0.3,3.6,0.8,6.1,1.6c2.9,0.8,5.3,1.3,7.3,1.8c2,0.4,4,0.6,6,0.6c5,0,7.8-1.6,8.3-4.8l0-0.1h0.9
					l0,0.2c-0.5,5.3-1.8,9.7-4,13c-2.2,3.3-6,5-11.2,5c-3.7,0-7.3-0.5-10.7-1.4c-3.4-0.9-7.5-2.3-12.4-4l-3.2,15.4
					c2.4-1.6,5-3.1,7.9-4.3c4.9-2.1,10.1-2.3,14.5-2.3c5.9,0,10.9,1.4,14.7,4.2c3.9,2.8,5.8,7.1,5.8,12.7c0,4.5-1.2,8.3-3.7,11.4
					c-2.5,3.1-5.9,5.5-10.3,7.1C220.1,62.3,215,63.1,209.4,63.1z"/>
				<path class="st6" d="M236.9,4c-0.5,5.3-1.8,9.6-4,12.9c-2.2,3.3-5.9,4.9-11.1,4.9c-3.7,0-7.3-0.5-10.7-1.4
					c-3.4-0.9-7.6-2.3-12.6-4.1l-3.3,16c2.5-1.7,5.2-3.3,8.2-4.6c4.7-2,9.5-2.3,14.5-2.3c5.9,0,10.8,1.4,14.7,4.2
					c3.8,2.8,5.8,7,5.8,12.6c0,4.5-1.2,8.2-3.7,11.3c-2.4,3.1-5.9,5.4-10.2,7c-4.4,1.6-9.4,2.4-15,2.4c-4.8,0-8.7-0.6-11.8-1.9
					c-3.1-1.3-5.3-2.9-6.7-4.8c-1.4-1.9-2-3.9-2-5.9c0-2.1,0.6-3.9,1.7-5.4c1.1-1.5,2.5-2.6,4.1-3.3l0.3,1.9
					c-0.6,0.5-1.2,1.1-1.7,1.8c-1.1,1.4-1.6,3.1-1.6,5c0,2.2,0.7,4.2,2.2,6c1.5,1.8,3.6,2.9,5.7,3.5c2.1,0.6,4.6,1,7.9,1
					c5.5,0,8.9-1.5,11.9-4.3c3-2.8,4.5-5.6,4.5-10.7c0-2.9-0.6-5.6-1.8-8.1c-1.2-2.4-2.9-4.4-5.3-5.9c-2.4-1.5-5.2-2.2-8.6-2.2
					c-3,0-5.9,0.7-8.7,2c-2.8,1.3-5.8,3.3-9,6h-0.2l4.2-23c0.7-3.9,1.8-6.5,3.2-7.9c1.4-1.4,3.5-2.1,6.2-2.1c1.4,0,2.9,0.2,4.4,0.5
					c1.6,0.3,3.6,0.8,6.1,1.6c2.9,0.8,5.3,1.3,7.3,1.8c2,0.4,4,0.6,6,0.6c5.1,0,7.9-1.6,8.4-4.9H236.9 M237.2,3.7h-0.3h-0.6H236
					l0,0.3c-0.5,3.1-3.1,4.6-8.1,4.6c-2,0-4-0.2-6-0.6c-2-0.4-4.5-1-7.3-1.8c-2.5-0.7-4.6-1.2-6.1-1.6c-1.6-0.3-3.1-0.5-4.5-0.5
					c-2.7,0-4.9,0.7-6.4,2.2c-1.5,1.5-2.6,4.2-3.3,8.1l-4.2,23l-0.1,0.4h0.4h0.2h0.1l0.1-0.1c3.2-2.6,6.2-4.6,9-5.9
					c2.7-1.3,5.6-1.9,8.6-1.9c3.3,0,6.1,0.7,8.5,2.2c2.3,1.4,4.1,3.4,5.2,5.7c1.1,2.4,1.7,5.1,1.7,7.9c0,5.3-1.7,7.9-4.4,10.5
					c-3.1,2.9-6.6,4.2-11.7,4.2c-3.1,0-5.7-0.3-7.8-0.9c-1.6-0.5-3.9-1.5-5.6-3.4c-1.4-1.7-2.2-3.7-2.2-5.8c0-1.9,0.5-3.5,1.5-4.8
					c0.5-0.6,1-1.2,1.6-1.7l0.1-0.1l0-0.2l-0.3-1.9l-0.1-0.4l-0.3,0.1c-1.7,0.7-3.1,1.8-4.3,3.4c-1.1,1.6-1.7,3.4-1.7,5.6
					c0,2.1,0.7,4.1,2.1,6.1c1.4,2,3.7,3.6,6.8,4.9c3.1,1.3,7.1,1.9,11.9,1.9c5.7,0,10.8-0.8,15.1-2.4c4.4-1.6,7.9-4,10.3-7.1
					c2.5-3.1,3.7-7,3.7-11.5c0-5.7-2-10-5.9-12.8c-3.9-2.8-8.9-4.2-14.8-4.2c-4.5,0-9.7,0.2-14.6,2.3c-2.7,1.2-5.3,2.6-7.6,4.1
					l3.1-14.9c4.8,1.7,8.9,3.1,12.3,4c3.4,0.9,7.1,1.4,10.8,1.4c5.3,0,9.1-1.7,11.4-5c2.2-3.3,3.6-7.7,4-13L237.2,3.7L237.2,3.7z"/>
			</g>
		</g>
	</g>
</g>
</svg>
